<svg id="Call-analytics" xmlns="http://www.w3.org/2000/svg" width="24.303" height="22.953" viewBox="0 0 24.303 22.953">
  <path id="Path_43" data-name="Path 43" d="M.675,234.668h2.7a.675.675,0,0,1,.675.675v6.751a.675.675,0,0,1-.675.675H.675A.675.675,0,0,1,0,242.094v-6.751A.675.675,0,0,1,.675,234.668Zm0,0" transform="translate(0 -219.816)"/>
  <path id="Path_44" data-name="Path 44" d="M107.343,149.332h2.7a.675.675,0,0,1,.675.675v12.152a.675.675,0,0,1-.675.675h-2.7a.675.675,0,0,1-.675-.675V150.007A.675.675,0,0,1,107.343,149.332Zm0,0" transform="translate(-99.917 -139.881)"/>
  <path id="Path_45" data-name="Path 45" d="M214.007,192h2.7a.675.675,0,0,1,.675.675v9.451a.675.675,0,0,1-.675.675h-2.7a.675.675,0,0,1-.675-.675v-9.451A.675.675,0,0,1,214.007,192Zm0,0" transform="translate(-199.83 -179.848)"/>
  <path id="Path_46" data-name="Path 46" d="M320.675,128h2.7a.675.675,0,0,1,.675.675v13.5a.675.675,0,0,1-.675.675h-2.7a.675.675,0,0,1-.675-.675v-13.5A.675.675,0,0,1,320.675,128Zm0,0" transform="translate(-299.747 -119.899)"/>
  <path id="Path_47" data-name="Path 47" d="M22.278,0a2.028,2.028,0,0,0-2.025,2.025,2,2,0,0,0,.116.647l-3.38,2.009a2.008,2.008,0,0,0-3.233.433L10.775,3.637a2.028,2.028,0,0,0,.026-.262,2.025,2.025,0,1,0-3.9.772L3.039,7.033a2,2,0,0,0-1.014-.282,2.047,2.047,0,1,0,1.89,1.313L7.82,5.15a1.982,1.982,0,0,0,2.345-.308l3.39,1.679a2.023,2.023,0,0,0,4-.445c0-.051-.011-.1-.015-.15L21.213,3.74a2.005,2.005,0,0,0,1.065.31,2.025,2.025,0,1,0,0-4.051Zm0,0"/>
</svg>
