<svg xmlns="http://www.w3.org/2000/svg" width="21.818" height="20.073" viewBox="0 0 21.818 20.073">
  <g id="Chat" transform="translate(0 1.332)">
    <path id="Path_48" data-name="Path 48" d="M18.819-1.332H3a3,3,0,0,0-3,3v9.681a3,3,0,0,0,2.989,3v4.393L9.3,14.348h9.516a3,3,0,0,0,3-3V1.668A3,3,0,0,0,18.819-1.332ZM20.54,11.348a1.723,1.723,0,0,1-1.721,1.721H8.9L4.267,16.294V13.07H3a1.723,1.723,0,0,1-1.721-1.721V1.668A1.723,1.723,0,0,1,3-.054H18.819A1.723,1.723,0,0,1,20.54,1.668Zm0,0" transform="translate(0)"/>
    <path id="Path_49" data-name="Path 49" d="M171.293,131.172h10.139v1.278H171.293Zm0,0" transform="translate(-165.453 -127.987)"/>
    <path id="Path_50" data-name="Path 50" d="M171.293,211.172h10.139v1.278H171.293Zm0,0" transform="translate(-165.453 -205.259)"/>
    <path id="Path_51" data-name="Path 51" d="M171.293,291.172h10.139v1.278H171.293Zm0,0" transform="translate(-165.453 -282.532)"/>
  </g>
</svg>
