<svg xmlns="http://www.w3.org/2000/svg" width="107" height="57" viewBox="0 0 107 57">
  <g id="Hang_call" data-name="Hang call" transform="translate(-1058 -985)">
    <!-- <rect id="Rectangle_10" data-name="Rectangle 10" width="107" height="57" rx="28.5" transform="translate(1058 985)" fill="#d8503f"/> -->
    <g id="telephone-handler_1_" data-name="telephone-handler (1)" transform="translate(1095 998.262)">
      <path id="Path_42" data-name="Path 42" d="M0,17.783.02,20.42l0,0A1.032,1.032,0,0,0,1.07,21.451l.007,0,7.489-.06a1.029,1.029,0,0,0,1.022-1.043l-.021-2.64-.366,0c.114-1.1,1.444-1.354,4.1-1.647l6.383-.055c1.534.149,3.022.425,3.129,1.617h-.2l.021,2.637v0A1.033,1.033,0,0,0,23.675,21.3l.006,0,7.488-.062A1.027,1.027,0,0,0,32.192,20.2l-.022-2.64-.271,0c-.264-1.6-2.91-6.78-15.413-6.828C3.511,10.691.474,16.061.316,17.781Z" fill="#fff"/>
    </g>
  </g>
</svg>
