<svg xmlns="http://www.w3.org/2000/svg" width="17.34" height="7.061" viewBox="0 0 17.34 27.061">
  <g id="mic" transform="translate(-78.157)">
    <g id="Group_48" data-name="Group 48" transform="translate(78.157 13.032)">
      <g id="Group_47" data-name="Group 47" transform="translate(0)">
        <path id="Path_38" data-name="Path 38" d="M95.5,210.517a.955.955,0,1,0-1.91,0,6.76,6.76,0,0,1-13.519,0,.955.955,0,1,0-1.91,0,8.68,8.68,0,0,0,7.715,8.616v2.547H82.4a.955.955,0,1,0,0,1.91h8.858a.955.955,0,1,0,0-1.91H87.782v-2.547A8.68,8.68,0,0,0,95.5,210.517Z" transform="translate(-78.157 -209.562)"/>
      </g>
    </g>
    <g id="Group_50" data-name="Group 50" transform="translate(81.5)">
      <g id="Group_49" data-name="Group 49" transform="translate(0)">
        <path id="Path_39" data-name="Path 39" d="M137.243,0a5.327,5.327,0,0,0-5.327,5.327v8.625a5.327,5.327,0,1,0,10.654,0V5.327A5.327,5.327,0,0,0,137.243,0Z" transform="translate(-131.916)"/>
      </g>
    </g>
  </g>
</svg>
