<svg xmlns="http://www.w3.org/2000/svg" width="21.976" height="27.061" viewBox="0 0 21.976 27.061">
  <g id="mute-microphone" transform="translate(-9.082)">
    <g id="Group_310" data-name="Group 310" transform="translate(9.082)">
      <path id="Path_245" data-name="Path 245" d="M46.185,46.9V43.349L38.639,50.9a4.829,4.829,0,0,0,7.546-4Z" transform="translate(-30.365 -31.214)"/>
      <path id="Path_246" data-name="Path 246" d="M40.929,45.715h-.962a.56.56,0,0,0-.56.56v1.968A6.241,6.241,0,0,1,29.646,53.4l-1.468,1.468A8.181,8.181,0,0,0,32.121,56.5V57.9h-4.3a.56.56,0,0,0-.56.56v.962a.56.56,0,0,0,.56.56H38.5a.56.56,0,0,0,.56-.56v-.962a.56.56,0,0,0-.56-.56H34.2V56.5a8.445,8.445,0,0,0,7.286-8.26V46.275A.559.559,0,0,0,40.929,45.715Z" transform="translate(-22.174 -32.918)"/>
      <path id="Path_247" data-name="Path 247" d="M30.606,2.154a1.54,1.54,0,0,0-2.177,0L24.9,5.681V4.832a4.832,4.832,0,1,0-9.665,0V15.345l-1.274,1.274a6.224,6.224,0,0,1-.138-1.294V13.357a.56.56,0,0,0-.56-.56H12.3a.56.56,0,0,0-.56.56v1.968a8.072,8.072,0,0,0,.566,2.949L9.533,21.049a1.54,1.54,0,0,0,2.177,2.178l18.9-18.9A1.539,1.539,0,0,0,30.606,2.154Z" transform="translate(-9.082)"/>
    </g>
  </g>
</svg>
