<svg id="changeColor" fill="#DC7633" xmlns="http://www.w3.org/2000/svg" xmlns:xlink="http://www.w3.org/1999/xlink" width="200" zoomAndPan="magnify" viewBox="0 0 375 374.9999" height="200" preserveAspectRatio="xMidYMid meet" version="1.0"><defs><path id="pathAttribute" d="M 7.09375 7.09375 L 367.84375 7.09375 L 367.84375 367.84375 L 7.09375 367.84375 Z M 7.09375 7.09375 " fill="#000000"></path></defs><g><path id="pathAttribute" d="M 187.46875 7.09375 C 87.851562 7.09375 7.09375 87.851562 7.09375 187.46875 C 7.09375 287.085938 87.851562 367.84375 187.46875 367.84375 C 287.085938 367.84375 367.84375 287.085938 367.84375 187.46875 C 367.84375 87.851562 287.085938 7.09375 187.46875 7.09375 " fill-opacity="1" fill-rule="nonzero" fill="#000000"></path></g><g id="inner-icon" transform="translate(85, 75)"> <svg xmlns="http://www.w3.org/2000/svg" width="199.8" height="199.8" fill="currentColor" class="bi bi-mic-mute" viewBox="0 0 16 16" id="IconChangeColor"> <path d="M13 8c0 .564-.094 1.107-.266 1.613l-.814-.814A4.02 4.02 0 0 0 12 8V7a.5.5 0 0 1 1 0v1zm-5 4c.818 0 1.578-.245 2.212-.667l.718.719a4.973 4.973 0 0 1-2.43.923V15h3a.5.5 0 0 1 0 1h-7a.5.5 0 0 1 0-1h3v-2.025A5 5 0 0 1 3 8V7a.5.5 0 0 1 1 0v1a4 4 0 0 0 4 4zm3-9v4.879l-1-1V3a2 2 0 0 0-3.997-.118l-.845-.845A3.001 3.001 0 0 1 11 3z" id="mainIconPathAttribute" fill="#ffffff"></path> <path d="m9.486 10.607-.748-.748A2 2 0 0 1 6 8v-.878l-1-1V8a3 3 0 0 0 4.486 2.607zm-7.84-9.253 12 12 .708-.708-12-12-.708.708z" id="mainIconPathAttribute" fill="#ffffff"></path> </svg> </g></svg>