<svg xmlns="http://www.w3.org/2000/svg" width="31.135" height="24.463" viewBox="0 0 31.135 24.463">
  <path id="share_11_" data-name="share (11)" d="M16.117,41.96H11.669a3.336,3.336,0,0,1-3.336-3.336V24.169a3.336,3.336,0,0,1,3.336-3.336H36.132a3.336,3.336,0,0,1,3.336,3.336V38.624a3.336,3.336,0,0,1-3.336,3.336H31.684v.867A2.469,2.469,0,0,1,29.215,45.3H18.586a2.469,2.469,0,0,1-2.469-2.469Zm2.224,0v.867a.246.246,0,0,0,.246.246H29.215a.246.246,0,0,0,.246-.246V41.96Zm4.448-11.771-1.247,1.247a1.112,1.112,0,1,1-1.573-1.573l3.145-3.145a1.112,1.112,0,0,1,1.573,0l3.145,3.145a1.112,1.112,0,0,1-1.572,1.573l-1.247-1.247v5.1a1.112,1.112,0,1,1-2.224,0Z" transform="translate(-8.333 -20.833)" fill-rule="evenodd"/>
</svg>
