<svg xmlns="http://www.w3.org/2000/svg" width="30.06" height="31" viewBox="0 0 30.06 31">
  <g id="setting" transform="translate(0.167 0.669)">
    <rect id="Rectangle_654" data-name="Rectangle 654" width="30" height="31" transform="translate(-0.167 -0.669)" opacity="0"/>
    <g id="preference" transform="translate(0.039 0.045)">
      <g id="Group_2105" data-name="Group 2105">
        <path id="Path_1340" data-name="Path 1340" d="M29.388,13.06c-.241-.151-2.123-1.278-2.872-1.621L25.589,9.2c.275-.744.8-2.817.884-3.177a.992.992,0,0,0-.267-.925l-1.45-1.451a.992.992,0,0,0-.925-.267c-.273.062-2.4.6-3.177.884l-2.238-.928C18.088,2.623,16.988.785,16.8.467A.992.992,0,0,0,15.953,0H13.9a.992.992,0,0,0-.843.466c-.151.242-1.278,2.124-1.621,2.872L9.2,4.266c-.744-.275-2.817-.8-3.177-.884a.992.992,0,0,0-.925.267L3.647,5.1a.992.992,0,0,0-.267.925c.062.273.6,2.4.884,3.177l-.928,2.239c-.714.325-2.553,1.42-2.871,1.619A.992.992,0,0,0,0,13.9v2.051a.992.992,0,0,0,.466.843c.241.151,2.123,1.278,2.872,1.621l.928,2.238c-.275.744-.8,2.817-.884,3.177a.992.992,0,0,0,.267.925L5.1,26.2a.992.992,0,0,0,.925.267c.273-.062,2.4-.6,3.177-.884l2.238.928c.327.715,1.422,2.554,1.621,2.872a.992.992,0,0,0,.843.466h2.051a.992.992,0,0,0,.843-.466c.151-.241,1.278-2.123,1.621-2.872l2.238-.928c.744.275,2.817.8,3.177.884a.992.992,0,0,0,.925-.267l1.45-1.45a.992.992,0,0,0,.267-.925c-.062-.273-.6-2.4-.884-3.177l.928-2.238C27.231,18.09,29.07,17,29.387,16.8a.992.992,0,0,0,.466-.843V13.9a.992.992,0,0,0-.465-.84ZM14.927,21.436a6.508,6.508,0,1,1,6.508-6.508,6.508,6.508,0,0,1-6.508,6.508Z" transform="translate(0.001)"/>
      </g>
    </g>
  </g>
</svg>
