<svg xmlns="http://www.w3.org/2000/svg" width="30.391" height="17.855" viewBox="0 0 30.391 17.855">
  <g id="video-camera_3_" data-name="video-camera (3)" transform="translate(0 -96.512)">
    <g id="Group_52" data-name="Group 52" transform="translate(0 96.512)">
      <g id="Group_51" data-name="Group 51" transform="translate(0 0)">
        <path id="Path_40" data-name="Path 40" d="M17.19,96.512H3.325A3.335,3.335,0,0,0,0,99.837v11.205a3.335,3.335,0,0,0,3.325,3.325H17.19a3.335,3.335,0,0,0,3.325-3.325V99.837A3.314,3.314,0,0,0,17.19,96.512Z" transform="translate(0 -96.512)"/>
      </g>
    </g>
    <g id="Group_54" data-name="Group 54" transform="translate(22.178 98.287)">
      <g id="Group_53" data-name="Group 53" transform="translate(0 0)">
        <path id="Path_41" data-name="Path 41" d="M347.256,123.9a1.693,1.693,0,0,0-.565.233l-5.187,2.993v7.714l5.22,2.993a1.977,1.977,0,0,0,2.727-.732,2.032,2.032,0,0,0,.266-1V125.829A2,2,0,0,0,347.256,123.9Z" transform="translate(-341.504 -123.847)"/>
      </g>
    </g>
  </g>
</svg>
